<svg width="72" height="28" viewBox="0 0 72 28" fill="none" xmlns="http://www.w3.org/2000/svg">
<path d="M62.0001 2L54.9886 5.82442C54.8497 5.90022 54.8497 6.09978 54.9886 6.17558L61.9043 9.94776C61.964 9.98032 62.0362 9.98032 62.0959 9.94775L67.7043 6.88803C67.8376 6.81532 68.0001 6.91179 68.0001 7.06361V11.1333C68.0001 11.2438 68.0896 11.3333 68.2001 11.3333H69.1334C69.2439 11.3333 69.3334 11.2438 69.3334 11.1333V6M57.6292 8.94809C57.4959 8.87536 57.3334 8.97182 57.3334 9.12365V11.3346C57.3334 11.4078 57.3734 11.4751 57.4376 11.5102L61.9043 13.9477C61.964 13.9803 62.0362 13.9803 62.0959 13.9477L66.5626 11.5102C66.6268 11.4751 66.6667 11.4078 66.6667 11.3346V9.12365C66.6667 8.97182 66.5042 8.87536 66.3709 8.94809L62.0959 11.2811C62.0362 11.3136 61.964 11.3136 61.9043 11.2811L57.6292 8.94809Z" fill="white"/>
<path d="M8.748 13H6.084L3.264 8.728V13H0.6V4.504H3.264L6.084 8.848V4.504H8.748V13ZM15.3996 11.716H12.5676L12.1476 13H9.35156L12.4596 4.504H15.5316L18.6276 13H15.8196L15.3996 11.716ZM14.7516 9.712L13.9836 7.348L13.2156 9.712H14.7516ZM23.5048 13L21.9088 9.952H21.8968V13H19.2328V4.504H23.1928C23.8808 4.504 24.4688 4.628 24.9568 4.876C25.4448 5.116 25.8088 5.448 26.0488 5.872C26.2968 6.288 26.4208 6.76 26.4208 7.288C26.4208 7.856 26.2608 8.36 25.9408 8.8C25.6288 9.24 25.1768 9.556 24.5848 9.748L26.4328 13H23.5048ZM21.8968 8.176H22.9528C23.2088 8.176 23.4008 8.12 23.5288 8.008C23.6568 7.888 23.7208 7.704 23.7208 7.456C23.7208 7.232 23.6528 7.056 23.5168 6.928C23.3888 6.8 23.2008 6.736 22.9528 6.736H21.8968V8.176ZM32.6839 13L31.1239 10.792L29.8279 13H26.7919L29.5879 8.62L26.6719 4.504H29.8279L31.3279 6.628L32.5759 4.504H35.6119L32.8639 8.8L35.8399 13H32.6839ZM40.5759 13.084C39.7759 13.084 39.0399 12.896 38.3679 12.52C37.7039 12.144 37.1759 11.624 36.7839 10.96C36.3919 10.296 36.1959 9.548 36.1959 8.716C36.1959 7.884 36.3919 7.136 36.7839 6.472C37.1759 5.808 37.7039 5.292 38.3679 4.924C39.0399 4.548 39.7759 4.36 40.5759 4.36C41.3759 4.36 42.1079 4.548 42.7719 4.924C43.4359 5.292 43.9599 5.808 44.3439 6.472C44.7359 7.136 44.9319 7.884 44.9319 8.716C44.9319 9.548 44.7359 10.296 44.3439 10.96C43.9599 11.624 43.4319 12.144 42.7599 12.52C42.0959 12.896 41.3679 13.084 40.5759 13.084ZM40.5759 10.6C41.1039 10.6 41.5119 10.432 41.7999 10.096C42.0879 9.752 42.2319 9.292 42.2319 8.716C42.2319 8.132 42.0879 7.672 41.7999 7.336C41.5119 6.992 41.1039 6.82 40.5759 6.82C40.0399 6.82 39.6279 6.992 39.3399 7.336C39.0519 7.672 38.9079 8.132 38.9079 8.716C38.9079 9.292 39.0519 9.752 39.3399 10.096C39.6279 10.432 40.0399 10.6 40.5759 10.6ZM48.845 10.876H52.253V13H45.893V10.996L49.253 6.616H45.893V4.504H52.253V6.508L48.845 10.876Z" fill="white"/>
<path d="M2.616 20.056C1.93867 20.056 1.37867 19.8987 0.936 19.584C0.498667 19.264 0.261333 18.7973 0.224 18.184H2.112C2.13867 18.5093 2.28267 18.672 2.544 18.672C2.64 18.672 2.72 18.6507 2.784 18.608C2.85333 18.56 2.888 18.488 2.888 18.392C2.888 18.2587 2.816 18.152 2.672 18.072C2.528 17.9867 2.304 17.8907 2 17.784C1.63733 17.656 1.336 17.5307 1.096 17.408C0.861333 17.2853 0.658667 17.1067 0.488 16.872C0.317333 16.6373 0.234667 16.336 0.24 15.968C0.24 15.6 0.333333 15.288 0.52 15.032C0.712 14.7707 0.970667 14.5733 1.296 14.44C1.62667 14.3067 1.99733 14.24 2.408 14.24C3.10133 14.24 3.65067 14.4 4.056 14.72C4.46667 15.04 4.68267 15.4907 4.704 16.072H2.792C2.78667 15.912 2.74667 15.7973 2.672 15.728C2.59733 15.6587 2.50667 15.624 2.4 15.624C2.32533 15.624 2.264 15.6507 2.216 15.704C2.168 15.752 2.144 15.8213 2.144 15.912C2.144 16.04 2.21333 16.1467 2.352 16.232C2.496 16.312 2.72267 16.4107 3.032 16.528C3.38933 16.6613 3.68267 16.7893 3.912 16.912C4.14667 17.0347 4.34933 17.2053 4.52 17.424C4.69067 17.6427 4.776 17.9173 4.776 18.248C4.776 18.5947 4.69067 18.9067 4.52 19.184C4.34933 19.456 4.10133 19.6693 3.776 19.824C3.45067 19.9787 3.064 20.056 2.616 20.056ZM8.16 20.056C7.62667 20.056 7.136 19.9307 6.688 19.68C6.24533 19.4293 5.89333 19.0827 5.632 18.64C5.37067 18.1973 5.24 17.6987 5.24 17.144C5.24 16.5893 5.37067 16.0907 5.632 15.648C5.89333 15.2053 6.24533 14.8613 6.688 14.616C7.136 14.3653 7.62667 14.24 8.16 14.24C8.69333 14.24 9.18133 14.3653 9.624 14.616C10.0667 14.8613 10.416 15.2053 10.672 15.648C10.9333 16.0907 11.064 16.5893 11.064 17.144C11.064 17.6987 10.9333 18.1973 10.672 18.64C10.416 19.0827 10.064 19.4293 9.616 19.68C9.17333 19.9307 8.688 20.056 8.16 20.056ZM8.16 18.4C8.512 18.4 8.784 18.288 8.976 18.064C9.168 17.8347 9.264 17.528 9.264 17.144C9.264 16.7547 9.168 16.448 8.976 16.224C8.784 15.9947 8.512 15.88 8.16 15.88C7.80267 15.88 7.528 15.9947 7.336 16.224C7.144 16.448 7.048 16.7547 7.048 17.144C7.048 17.528 7.144 17.8347 7.336 18.064C7.528 18.288 7.80267 18.4 8.16 18.4ZM11.5447 17.16C11.5447 16.6 11.6567 16.1013 11.8807 15.664C12.11 15.2267 12.4354 14.888 12.8567 14.648C13.278 14.4027 13.774 14.28 14.3447 14.28C14.8354 14.28 15.2727 14.3733 15.6567 14.56C16.046 14.7413 16.3607 15 16.6007 15.336C16.846 15.672 17.0087 16.064 17.0887 16.512H15.2167C15.1314 16.3253 15.0087 16.1813 14.8487 16.08C14.694 15.9733 14.5154 15.92 14.3127 15.92C14.014 15.92 13.7767 16.032 13.6007 16.256C13.43 16.48 13.3447 16.7813 13.3447 17.16C13.3447 17.5387 13.43 17.84 13.6007 18.064C13.7767 18.288 14.014 18.4 14.3127 18.4C14.5154 18.4 14.694 18.3493 14.8487 18.248C15.0087 18.1413 15.1314 17.9947 15.2167 17.808H17.0887C17.0087 18.256 16.846 18.648 16.6007 18.984C16.3607 19.32 16.046 19.5813 15.6567 19.768C15.2727 19.9493 14.8354 20.04 14.3447 20.04C13.774 20.04 13.278 19.92 12.8567 19.68C12.4354 19.4347 12.11 19.0933 11.8807 18.656C11.6567 18.2187 11.5447 17.72 11.5447 17.16ZM19.5041 14.336V20H17.7281V14.336H19.5041ZM23.9383 19.144H22.0503L21.7703 20H19.9062L21.9783 14.336H24.0263L26.0903 20H24.2183L23.9383 19.144ZM23.5063 17.808L22.9943 16.232L22.4823 17.808H23.5063ZM28.2698 18.656H29.9818V20H26.4938V14.336H28.2698V18.656Z" fill="white"/>
</svg>
