<svg width="70" height="28" viewBox="0 0 70 28" fill="none" xmlns="http://www.w3.org/2000/svg">
<path d="M62.0001 2L54.9886 5.82442C54.8497 5.90022 54.8497 6.09978 54.9886 6.17558L61.9043 9.94776C61.964 9.98032 62.0362 9.98032 62.0959 9.94775L67.7043 6.88803C67.8376 6.81532 68.0001 6.91179 68.0001 7.06361V11.1333C68.0001 11.2438 68.0896 11.3333 68.2001 11.3333H69.1334C69.2439 11.3333 69.3334 11.2438 69.3334 11.1333V6M57.6292 8.94809C57.4959 8.87536 57.3334 8.97182 57.3334 9.12365V11.3346C57.3334 11.4078 57.3734 11.4751 57.4376 11.5102L61.9043 13.9477C61.964 13.9803 62.0362 13.9803 62.0959 13.9477L66.5626 11.5102C66.6268 11.4751 66.6667 11.4078 66.6667 11.3346V9.12365C66.6667 8.97182 66.5042 8.87536 66.3709 8.94809L62.0959 11.2811C62.0362 11.3136 61.964 11.3136 61.9043 11.2811L57.6292 8.94809Z" fill="white"/>
<path d="M8.748 13H6.084L3.264 8.728V13H0.6V4.504H3.264L6.084 8.848V4.504H8.748V13ZM15.3996 11.716H12.5676L12.1476 13H9.35156L12.4596 4.504H15.5316L18.6276 13H15.8196L15.3996 11.716ZM14.7516 9.712L13.9836 7.348L13.2156 9.712H14.7516ZM23.5048 13L21.9088 9.952H21.8968V13H19.2328V4.504H23.1928C23.8808 4.504 24.4688 4.628 24.9568 4.876C25.4448 5.116 25.8088 5.448 26.0488 5.872C26.2968 6.288 26.4208 6.76 26.4208 7.288C26.4208 7.856 26.2608 8.36 25.9408 8.8C25.6288 9.24 25.1768 9.556 24.5848 9.748L26.4328 13H23.5048ZM21.8968 8.176H22.9528C23.2088 8.176 23.4008 8.12 23.5288 8.008C23.6568 7.888 23.7208 7.704 23.7208 7.456C23.7208 7.232 23.6528 7.056 23.5168 6.928C23.3888 6.8 23.2008 6.736 22.9528 6.736H21.8968V8.176ZM32.6839 13L31.1239 10.792L29.8279 13H26.7919L29.5879 8.62L26.6719 4.504H29.8279L31.3279 6.628L32.5759 4.504H35.6119L32.8639 8.8L35.8399 13H32.6839ZM40.5759 13.084C39.7759 13.084 39.0399 12.896 38.3679 12.52C37.7039 12.144 37.1759 11.624 36.7839 10.96C36.3919 10.296 36.1959 9.548 36.1959 8.716C36.1959 7.884 36.3919 7.136 36.7839 6.472C37.1759 5.808 37.7039 5.292 38.3679 4.924C39.0399 4.548 39.7759 4.36 40.5759 4.36C41.3759 4.36 42.1079 4.548 42.7719 4.924C43.4359 5.292 43.9599 5.808 44.3439 6.472C44.7359 7.136 44.9319 7.884 44.9319 8.716C44.9319 9.548 44.7359 10.296 44.3439 10.96C43.9599 11.624 43.4319 12.144 42.7599 12.52C42.0959 12.896 41.3679 13.084 40.5759 13.084ZM40.5759 10.6C41.1039 10.6 41.5119 10.432 41.7999 10.096C42.0879 9.752 42.2319 9.292 42.2319 8.716C42.2319 8.132 42.0879 7.672 41.7999 7.336C41.5119 6.992 41.1039 6.82 40.5759 6.82C40.0399 6.82 39.6279 6.992 39.3399 7.336C39.0519 7.672 38.9079 8.132 38.9079 8.716C38.9079 9.292 39.0519 9.752 39.3399 10.096C39.6279 10.432 40.0399 10.6 40.5759 10.6ZM48.845 10.876H52.253V13H45.893V10.996L49.253 6.616H45.893V4.504H52.253V6.508L48.845 10.876Z" fill="white"/>
</svg>
