<svg width="86" height="86" viewBox="0 0 86 86" fill="none" xmlns="http://www.w3.org/2000/svg">
<rect width="86" height="86" rx="15" fill="white"/>
<path d="M61 43.2961V56.7486C61 57.768 60.5903 58.7456 59.861 59.4664C59.1317 60.1873 58.1425 60.5922 57.1111 60.5922H29.8889C28.8575 60.5922 27.8683 60.1873 27.139 59.4664C26.4097 58.7456 26 57.768 26 56.7486V43.2961H61ZM51.2778 26C51.7935 26 52.2881 26.2025 52.6527 26.5629C53.0174 26.9233 53.2222 27.4121 53.2222 27.9218V29.8436H57.1111C58.1425 29.8436 59.1317 30.2485 59.861 30.9693C60.5903 31.6901 61 32.6678 61 33.6872V39.4525H26V33.6872C26 32.6678 26.4097 31.6901 27.139 30.9693C27.8683 30.2485 28.8575 29.8436 29.8889 29.8436H33.7778V27.9218C33.7778 27.4121 33.9826 26.9233 34.3473 26.5629C34.7119 26.2025 35.2065 26 35.7222 26C36.2379 26 36.7325 26.2025 37.0972 26.5629C37.4618 26.9233 37.6667 27.4121 37.6667 27.9218V29.8436H49.3333V27.9218C49.3333 27.4121 49.5382 26.9233 49.9028 26.5629C50.2675 26.2025 50.7621 26 51.2778 26Z" fill="black"/>
</svg>
