<svg width="35" height="35" viewBox="0 0 35 35" fill="none" xmlns="http://www.w3.org/2000/svg">
<path d="M35 17.2961V30.7486C35 31.768 34.5903 32.7456 33.861 33.4664C33.1317 34.1873 32.1425 34.5922 31.1111 34.5922H3.88889C2.85749 34.5922 1.86834 34.1873 1.13903 33.4664C0.409721 32.7456 0 31.768 0 30.7486V17.2961H35ZM25.2778 0C25.7935 0 26.2881 0.202474 26.6527 0.562879C27.0174 0.923284 27.2222 1.4121 27.2222 1.92179V3.84358H31.1111C32.1425 3.84358 33.1317 4.24853 33.861 4.96934C34.5903 5.69015 35 6.66778 35 7.68716V13.4525H0V7.68716C0 6.66778 0.409721 5.69015 1.13903 4.96934C1.86834 4.24853 2.85749 3.84358 3.88889 3.84358H7.77778V1.92179C7.77778 1.4121 7.98264 0.923284 8.34729 0.562879C8.71195 0.202474 9.20652 0 9.72222 0C10.2379 0 10.7325 0.202474 11.0972 0.562879C11.4618 0.923284 11.6667 1.4121 11.6667 1.92179V3.84358H23.3333V1.92179C23.3333 1.4121 23.5382 0.923284 23.9028 0.562879C24.2675 0.202474 24.7621 0 25.2778 0Z" fill="white"/>
</svg>
