<svg width="30" height="30" viewBox="0 0 30 30" fill="none" xmlns="http://www.w3.org/2000/svg">
<path d="M22.8311 5.75928C20.0713 2.99951 15.5772 2.99951 12.8203 5.75928L5.17386 13.3999C5.12405 13.4497 5.09768 13.5171 5.09768 13.5874C5.09768 13.6577 5.12405 13.7251 5.17386 13.7749L6.25491 14.856C6.30432 14.9052 6.37122 14.9328 6.44095 14.9328C6.51068 14.9328 6.57757 14.9052 6.62698 14.856L14.2735 7.21533C15.2227 6.26611 16.4854 5.74463 17.8272 5.74463C19.169 5.74463 20.4317 6.26611 21.378 7.21533C22.3272 8.16455 22.8487 9.42725 22.8487 10.7661C22.8487 12.1079 22.3272 13.3677 21.378 14.3169L13.585 22.1069L12.3223 23.3696C11.1416 24.5503 9.22268 24.5503 8.04202 23.3696C7.47073 22.7983 7.15725 22.0396 7.15725 21.231C7.15725 20.4224 7.47073 19.6636 8.04202 19.0923L15.7735 11.3638C15.9698 11.1704 16.2276 11.062 16.503 11.062H16.5059C16.7813 11.062 17.0362 11.1704 17.2295 11.3638C17.4258 11.5601 17.5313 11.8179 17.5313 12.0933C17.5313 12.3657 17.4229 12.6235 17.2295 12.8169L10.9102 19.1304C10.8604 19.1802 10.834 19.2476 10.834 19.3179C10.834 19.3882 10.8604 19.4556 10.9102 19.5054L11.9912 20.5864C12.0407 20.6356 12.1075 20.6632 12.1773 20.6632C12.247 20.6632 12.3139 20.6356 12.3633 20.5864L18.6797 14.27C19.2627 13.687 19.5821 12.9136 19.5821 12.0903C19.5821 11.2671 19.2598 10.4907 18.6797 9.91064C17.4756 8.70654 15.5186 8.70947 14.3145 9.91064L13.5645 10.6636L6.58596 17.6392C6.11232 18.11 5.73688 18.6702 5.4814 19.2873C5.22592 19.9044 5.0955 20.566 5.09768 21.2339C5.09768 22.5903 5.62796 23.8647 6.58596 24.8228C7.57913 25.813 8.87991 26.3081 10.1807 26.3081C11.4815 26.3081 12.7823 25.813 13.7725 24.8228L22.8311 15.77C24.1641 14.4341 24.9024 12.6558 24.9024 10.7661C24.9053 8.87353 24.167 7.09521 22.8311 5.75928Z" fill="black"/>
</svg>
