<svg width="16" height="14" viewBox="0 0 16 14" fill="none" xmlns="http://www.w3.org/2000/svg">
<path d="M8 14C7.80712 14 7.62213 13.933 7.48574 13.8136C7.34935 13.6943 7.27273 13.5324 7.27273 13.3636V11.4545H4.36364C3.97787 11.4545 3.6079 11.3205 3.33512 11.0818C3.06234 10.8431 2.90909 10.5194 2.90909 10.1818V3.81818C2.90909 3.48063 3.06234 3.15691 3.33512 2.91823C3.6079 2.67954 3.97787 2.54545 4.36364 2.54545H14.5455C14.9312 2.54545 15.3012 2.67954 15.574 2.91823C15.8468 3.15691 16 3.48063 16 3.81818V10.1818C16 10.5194 15.8468 10.8431 15.574 11.0818C15.3012 11.3205 14.9312 11.4545 14.5455 11.4545H11.5636L8.87273 13.8155C8.72727 13.9364 8.54545 14 8.36364 14H8ZM8.72727 10.1818V12.1418L10.9673 10.1818H14.5455V3.81818H4.36364V10.1818H8.72727ZM1.45455 8.90909H0V1.27273C0 0.935179 0.153246 0.611456 0.426027 0.372773C0.698807 0.134091 1.06878 0 1.45455 0H13.0909V1.27273H1.45455V8.90909Z" fill="white"/>
</svg>
