<svg width="45" height="44" viewBox="0 0 45 44" fill="none" xmlns="http://www.w3.org/2000/svg">
<path d="M13.5 22C17.8523 22 21.375 17.0795 21.375 11C21.375 4.92054 17.8523 0 13.5 0C9.14766 0 5.625 4.92054 5.625 11C5.625 17.0795 9.14766 22 13.5 22ZM18.9 25.1429H18.3164C16.8539 26.125 15.2297 26.7143 13.5 26.7143C11.7703 26.7143 10.1531 26.125 8.68359 25.1429H8.1C3.62812 25.1429 0 30.2107 0 36.4571V39.2857C0 41.8884 1.51172 44 3.375 44H23.625C25.4883 44 27 41.8884 27 39.2857V36.4571C27 30.2107 23.3719 25.1429 18.9 25.1429ZM33.75 22C37.4766 22 40.5 17.7768 40.5 12.5714C40.5 7.36607 37.4766 3.14286 33.75 3.14286C30.0234 3.14286 27 7.36607 27 12.5714C27 17.7768 30.0234 22 33.75 22ZM37.125 25.1429H36.8578C35.8805 25.6143 34.8469 25.9286 33.75 25.9286C32.6531 25.9286 31.6195 25.6143 30.6422 25.1429H30.375C28.9406 25.1429 27.6187 25.7223 26.4586 26.6554C28.1742 29.2384 29.25 32.6661 29.25 36.4571V40.2286C29.25 40.4446 29.2148 40.6509 29.2078 40.8571H41.625C43.4883 40.8571 45 38.7455 45 36.1429C45 30.0634 41.4773 25.1429 37.125 25.1429Z" fill="white"/>
</svg>
