<svg width="86" height="86" viewBox="0 0 86 86" fill="none" xmlns="http://www.w3.org/2000/svg">
<rect width="86" height="86" rx="15" fill="white"/>
<path d="M34.5 42C38.8523 42 42.375 37.0795 42.375 31C42.375 24.9205 38.8523 20 34.5 20C30.1477 20 26.625 24.9205 26.625 31C26.625 37.0795 30.1477 42 34.5 42ZM39.9 45.1429H39.3164C37.8539 46.125 36.2297 46.7143 34.5 46.7143C32.7703 46.7143 31.1531 46.125 29.6836 45.1429H29.1C24.6281 45.1429 21 50.2107 21 56.4571V59.2857C21 61.8884 22.5117 64 24.375 64H44.625C46.4883 64 48 61.8884 48 59.2857V56.4571C48 50.2107 44.3719 45.1429 39.9 45.1429ZM54.75 42C58.4766 42 61.5 37.7768 61.5 32.5714C61.5 27.3661 58.4766 23.1429 54.75 23.1429C51.0234 23.1429 48 27.3661 48 32.5714C48 37.7768 51.0234 42 54.75 42ZM58.125 45.1429H57.8578C56.8805 45.6143 55.8469 45.9286 54.75 45.9286C53.6531 45.9286 52.6195 45.6143 51.6422 45.1429H51.375C49.9406 45.1429 48.6187 45.7223 47.4586 46.6554C49.1742 49.2384 50.25 52.6661 50.25 56.4571V60.2286C50.25 60.4446 50.2148 60.6509 50.2078 60.8571H62.625C64.4883 60.8571 66 58.7455 66 56.1429C66 50.0634 62.4773 45.1429 58.125 45.1429Z" fill="black"/>
</svg>
