<svg width="62" height="44" viewBox="0 0 62 44" fill="none" xmlns="http://www.w3.org/2000/svg">
<path fill-rule="evenodd" clip-rule="evenodd" d="M11 22C7.35625 22 4.4 17.7768 4.4 12.5714C4.4 7.36607 7.35625 3.14286 11 3.14286C14.6437 3.14286 17.6 7.36607 17.6 12.5714C17.6 17.7768 14.6437 22 11 22ZM7.7 25.1429H7.96125C8.91687 25.6143 9.9275 25.9286 11 25.9286C12.0725 25.9286 13.0831 25.6143 14.0388 25.1429H14.3C15.7025 25.1429 16.995 25.7223 18.1294 26.6554C16.4519 29.2384 15.4 32.6661 15.4 36.4571V40.2286C15.4 40.35 15.4109 40.4683 15.4216 40.5853C15.4299 40.6764 15.4382 40.7668 15.4412 40.8571H3.3C1.47812 40.8571 0 38.7455 0 36.1429C0 30.0634 3.44437 25.1429 7.7 25.1429Z" fill="white"/>
<path d="M31.2 22C35.4556 22 38.9 17.0795 38.9 11C38.9 4.92054 35.4556 0 31.2 0C26.9444 0 23.5 4.92054 23.5 11C23.5 17.0795 26.9444 22 31.2 22ZM36.48 25.1429H35.9094C34.4794 26.125 32.8913 26.7143 31.2 26.7143C29.5088 26.7143 27.9275 26.125 26.4906 25.1429H25.92C21.5475 25.1429 18 30.2107 18 36.4571V39.2857C18 41.8884 19.4781 44 21.3 44H41.1C42.9219 44 44.4 41.8884 44.4 39.2857V36.4571C44.4 30.2107 40.8525 25.1429 36.48 25.1429ZM51 22C54.6437 22 57.6 17.7768 57.6 12.5714C57.6 7.36607 54.6437 3.14286 51 3.14286C47.3563 3.14286 44.4 7.36607 44.4 12.5714C44.4 17.7768 47.3563 22 51 22ZM54.3 25.1429H54.0387C53.0831 25.6143 52.0725 25.9286 51 25.9286C49.9275 25.9286 48.9169 25.6143 47.9612 25.1429H47.7C46.2975 25.1429 45.005 25.7223 43.8706 26.6554C45.5481 29.2384 46.6 32.6661 46.6 36.4571V40.2286C46.6 40.4446 46.5656 40.6509 46.5588 40.8571H58.7C60.5219 40.8571 62 38.7455 62 36.1429C62 30.0634 58.5556 25.1429 54.3 25.1429Z" fill="white"/>
</svg>
