<svg width="86" height="86" viewBox="0 0 86 86" fill="none" xmlns="http://www.w3.org/2000/svg">
<rect width="86" height="86" rx="15" fill="white"/>
<path fill-rule="evenodd" clip-rule="evenodd" d="M25 43C21.3563 43 18.4 38.7768 18.4 33.5714C18.4 28.3661 21.3563 24.1429 25 24.1429C28.6437 24.1429 31.6 28.3661 31.6 33.5714C31.6 38.7768 28.6437 43 25 43ZM21.7 46.1429H21.9613C22.9169 46.6143 23.9275 46.9286 25 46.9286C26.0725 46.9286 27.0831 46.6143 28.0388 46.1429H28.3C29.7025 46.1429 30.995 46.7223 32.1294 47.6554C30.4519 50.2384 29.4 53.6661 29.4 57.4571V61.2286C29.4 61.35 29.4109 61.4683 29.4216 61.5853C29.4299 61.6764 29.4382 61.7668 29.4412 61.8571H17.3C15.4781 61.8571 14 59.7455 14 57.1429C14 51.0634 17.4444 46.1429 21.7 46.1429Z" fill="black"/>
<path d="M44.2 43C48.4556 43 51.9 38.0795 51.9 32C51.9 25.9205 48.4556 21 44.2 21C39.9444 21 36.5 25.9205 36.5 32C36.5 38.0795 39.9444 43 44.2 43ZM49.48 46.1429H48.9094C47.4794 47.125 45.8913 47.7143 44.2 47.7143C42.5088 47.7143 40.9275 47.125 39.4906 46.1429H38.92C34.5475 46.1429 31 51.2107 31 57.4571V60.2857C31 62.8884 32.4781 65 34.3 65H54.1C55.9219 65 57.4 62.8884 57.4 60.2857V57.4571C57.4 51.2107 53.8525 46.1429 49.48 46.1429ZM64 43C67.6437 43 70.6 38.7768 70.6 33.5714C70.6 28.3661 67.6437 24.1429 64 24.1429C60.3563 24.1429 57.4 28.3661 57.4 33.5714C57.4 38.7768 60.3563 43 64 43ZM67.3 46.1429H67.0387C66.0831 46.6143 65.0725 46.9286 64 46.9286C62.9275 46.9286 61.9169 46.6143 60.9612 46.1429H60.7C59.2975 46.1429 58.005 46.7223 56.8706 47.6554C58.5481 50.2384 59.6 53.6661 59.6 57.4571V61.2286C59.6 61.4446 59.5656 61.6509 59.5588 61.8571H71.7C73.5219 61.8571 75 59.7455 75 57.1429C75 51.0634 71.5556 46.1429 67.3 46.1429Z" fill="black"/>
</svg>
