<svg width="62" height="44" viewBox="0 0 62 44" fill="none" xmlns="http://www.w3.org/2000/svg">
<path fill-rule="evenodd" clip-rule="evenodd" d="M11.3158 22C7.67206 22 4.71581 17.7768 4.71581 12.5714C4.71581 7.36607 7.67206 3.14286 11.3158 3.14286C14.9596 3.14286 17.9158 7.36607 17.9158 12.5714C17.9158 17.7768 14.9596 22 11.3158 22ZM8.01581 25.1429H8.27706C9.23268 25.6143 10.2433 25.9286 11.3158 25.9286C12.3883 25.9286 13.3989 25.6143 14.3546 25.1429H14.6158C16.0183 25.1429 17.3108 25.7223 18.4452 26.6554C16.7677 29.2384 15.7158 32.6661 15.7158 36.4571V40.2286C15.7158 40.35 15.7267 40.4683 15.7374 40.5853C15.7458 40.6764 15.754 40.7668 15.7571 40.8571H3.61581C1.79393 40.8571 0.315807 38.7455 0.315807 36.1429C0.315807 30.0634 3.76018 25.1429 8.01581 25.1429Z" fill="black"/>
<path d="M31.2 22C35.4556 22 38.9 17.0795 38.9 11C38.9 4.92054 35.4556 0 31.2 0C26.9444 0 23.5 4.92054 23.5 11C23.5 17.0795 26.9444 22 31.2 22ZM36.48 25.1429H35.9094C34.4794 26.125 32.8913 26.7143 31.2 26.7143C29.5088 26.7143 27.9275 26.125 26.4906 25.1429H25.92C21.5475 25.1429 18 30.2107 18 36.4571V39.2857C18 41.8884 19.4781 44 21.3 44H41.1C42.9219 44 44.4 41.8884 44.4 39.2857V36.4571C44.4 30.2107 40.8525 25.1429 36.48 25.1429ZM51 22C54.6437 22 57.6 17.7768 57.6 12.5714C57.6 7.36607 54.6437 3.14286 51 3.14286C47.3563 3.14286 44.4 7.36607 44.4 12.5714C44.4 17.7768 47.3563 22 51 22ZM54.3 25.1429H54.0388C53.0831 25.6143 52.0725 25.9286 51 25.9286C49.9275 25.9286 48.9169 25.6143 47.9613 25.1429H47.7C46.2975 25.1429 45.005 25.7223 43.8706 26.6554C45.5481 29.2384 46.6 32.6661 46.6 36.4571V40.2286C46.6 40.4446 46.5656 40.6509 46.5588 40.8571H58.7C60.5219 40.8571 62 38.7455 62 36.1429C62 30.0634 58.5556 25.1429 54.3 25.1429Z" fill="black"/>
</svg>
