<svg width="86" height="86" viewBox="0 0 86 86" fill="none" xmlns="http://www.w3.org/2000/svg">
<rect width="86" height="86" rx="15" fill="white"/>
<path d="M26.625 59.9714H35.0625V47.4C35.0625 46.6876 35.3325 46.0909 35.8725 45.6098C36.4125 45.1288 37.08 44.8874 37.875 44.8857H49.125C49.9219 44.8857 50.5903 45.1271 51.1303 45.6098C51.6703 46.0926 51.9394 46.6893 51.9375 47.4V59.9714H60.375V37.3429L43.5 26.0286L26.625 37.3429V59.9714ZM21 59.9714V37.3429C21 36.5467 21.1997 35.7924 21.5991 35.08C21.9984 34.3676 22.5488 33.7809 23.25 33.32L40.125 22.0057C41.1094 21.3352 42.2344 21 43.5 21C44.7656 21 45.8906 21.3352 46.875 22.0057L63.75 33.32C64.4531 33.7809 65.0044 34.3676 65.4037 35.08C65.8031 35.7924 66.0019 36.5467 66 37.3429V59.9714C66 61.3543 65.4487 62.5385 64.3462 63.5241C63.2437 64.5097 61.92 65.0017 60.375 65H49.125C48.3281 65 47.6606 64.7586 47.1225 64.2759C46.5844 63.7931 46.3144 63.1964 46.3125 62.4857V49.9143H40.6875V62.4857C40.6875 63.1981 40.4175 63.7957 39.8775 64.2784C39.3375 64.7611 38.67 65.0017 37.875 65H26.625C25.0781 65 23.7544 64.508 22.6537 63.5241C21.5531 62.5402 21.0019 61.356 21 59.9714Z" fill="black"/>
</svg>
