<svg width="45" height="44" viewBox="0 0 45 44" fill="none" xmlns="http://www.w3.org/2000/svg">
<path d="M5.625 38.9714H14.0625V26.4C14.0625 25.6876 14.3325 25.0909 14.8725 24.6098C15.4125 24.1288 16.08 23.8874 16.875 23.8857H28.125C28.9219 23.8857 29.5903 24.1271 30.1303 24.6098C30.6703 25.0926 30.9394 25.6893 30.9375 26.4V38.9714H39.375V16.3429L22.5 5.02857L5.625 16.3429V38.9714ZM0 38.9714V16.3429C0 15.5467 0.199687 14.7924 0.599062 14.08C0.998437 13.3676 1.54875 12.7809 2.25 12.32L19.125 1.00571C20.1094 0.335238 21.2344 0 22.5 0C23.7656 0 24.8906 0.335238 25.875 1.00571L42.75 12.32C43.4531 12.7809 44.0044 13.3676 44.4037 14.08C44.8031 14.7924 45.0019 15.5467 45 16.3429V38.9714C45 40.3543 44.4487 41.5385 43.3462 42.5241C42.2437 43.5097 40.92 44.0017 39.375 44H28.125C27.3281 44 26.6606 43.7586 26.1225 43.2759C25.5844 42.7931 25.3144 42.1964 25.3125 41.4857V28.9143H19.6875V41.4857C19.6875 42.1981 19.4175 42.7957 18.8775 43.2784C18.3375 43.7611 17.67 44.0017 16.875 44H5.625C4.07812 44 2.75437 43.508 1.65375 42.5241C0.553124 41.5402 0.001875 40.356 0 38.9714Z" fill="white"/>
</svg>
