<svg width="86" height="86" viewBox="0 0 86 86" fill="none" xmlns="http://www.w3.org/2000/svg">
<rect width="86" height="86" rx="15" fill="white"/>
<path d="M54.823 37.3529C58.2341 37.3529 60.9994 34.5876 60.9994 31.1765C60.9994 27.7653 58.2341 25 54.823 25C51.4118 25 48.6465 27.7653 48.6465 31.1765C48.6465 34.5876 51.4118 37.3529 54.823 37.3529Z" fill="black"/>
<path d="M44.5294 31.1767C44.5294 29.7108 44.8444 28.3211 45.3982 27.0591H30.1176C27.8468 27.0591 26 28.9058 26 31.1767V55.8826C26 58.1535 27.8468 60.0003 30.1176 60.0003H54.8235C57.0944 60.0003 58.9412 58.1535 58.9412 55.8826V40.602C57.6431 41.1721 56.2413 41.4679 54.8235 41.4708C52.0934 41.4708 49.475 40.3863 47.5445 38.4558C45.614 36.5252 44.5294 33.9069 44.5294 31.1767Z" fill="black"/>
</svg>
