<svg width="50" height="50" viewBox="0 0 50 50" fill="none" xmlns="http://www.w3.org/2000/svg">
<g clip-path="url(#clip0_1258_276)">
<path d="M21.4142 0V28.9154H28.5858V0H21.4142ZM7.32117 7.32117C2.79704 11.8453 0 18.0964 0 25C0 38.8071 11.1929 50 25 50C38.8071 50 50 38.8071 50 25C50 18.0964 47.2029 11.8453 42.6788 7.32117L37.6434 12.3566C40.8793 15.5923 42.8802 20.0629 42.8802 25C42.8802 34.8742 34.8742 42.8802 25 42.8802C15.1258 42.8802 7.11975 34.8742 7.11975 25C7.11975 20.0629 9.12079 15.5923 12.3566 12.3566L7.32117 7.32117Z" fill="white"/>
</g>
<defs>
<clipPath id="clip0_1258_276">
<rect width="50" height="50" fill="white"/>
</clipPath>
</defs>
</svg>
