<svg width="86" height="86" viewBox="0 0 86 86" fill="none" xmlns="http://www.w3.org/2000/svg">
<rect width="86" height="86" rx="15" fill="white"/>
<path d="M21.001 43C21.001 30.8494 30.8501 21 43.0005 21C55.1508 21 65 30.8494 65 43C65 55.1506 55.1508 65 43.0005 65C39.2056 65 35.6328 64.0386 32.5144 62.3446L23.4539 64.9208C22.003 65.3333 20.6633 63.9924 21.0758 62.5426L23.6519 53.4808C21.9059 50.2638 20.9945 46.6603 21.001 43ZM34.2007 38.875C34.2007 39.634 34.8167 40.25 35.5756 40.25H50.4253C50.6059 40.25 50.7847 40.2144 50.9515 40.1453C51.1183 40.0762 51.2699 39.975 51.3976 39.8473C51.5252 39.7196 51.6265 39.568 51.6956 39.4012C51.7647 39.2344 51.8003 39.0556 51.8003 38.875C51.8003 38.6944 51.7647 38.5156 51.6956 38.3488C51.6265 38.182 51.5252 38.0304 51.3976 37.9027C51.2699 37.775 51.1183 37.6738 50.9515 37.6047C50.7847 37.5356 50.6059 37.5 50.4253 37.5H35.5756C34.8167 37.5 34.2007 38.116 34.2007 38.875ZM35.5756 45.75C35.211 45.75 34.8612 45.8949 34.6034 46.1527C34.3455 46.4106 34.2007 46.7603 34.2007 47.125C34.2007 47.4897 34.3455 47.8394 34.6034 48.0973C34.8612 48.3551 35.211 48.5 35.5756 48.5H46.0254C46.3901 48.5 46.7398 48.3551 46.9977 48.0973C47.2555 47.8394 47.4004 47.4897 47.4004 47.125C47.4004 46.7603 47.2555 46.4106 46.9977 46.1527C46.7398 45.8949 46.3901 45.75 46.0254 45.75H35.5756Z" fill="black"/>
</svg>
