<svg width="44" height="44" viewBox="0 0 44 44" fill="none" xmlns="http://www.w3.org/2000/svg">
<path d="M0.000954053 22C0.000954053 9.8494 9.85014 0 22.0005 0C34.1508 0 44 9.8494 44 22C44 34.1506 34.1508 44 22.0005 44C18.2056 44 14.6328 43.0386 11.5144 41.3446L2.4539 43.9208C1.00303 44.3333 -0.336739 42.9924 0.0757523 41.5426L2.6519 32.4808C0.905901 29.2638 -0.00554216 25.6603 0.000954053 22ZM13.2007 17.875C13.2007 18.634 13.8167 19.25 14.5756 19.25H29.4253C29.6059 19.25 29.7847 19.2144 29.9515 19.1453C30.1183 19.0762 30.2699 18.975 30.3976 18.8473C30.5252 18.7196 30.6265 18.568 30.6956 18.4012C30.7647 18.2344 30.8003 18.0556 30.8003 17.875C30.8003 17.6944 30.7647 17.5156 30.6956 17.3488C30.6265 17.182 30.5252 17.0304 30.3976 16.9027C30.2699 16.775 30.1183 16.6738 29.9515 16.6047C29.7847 16.5356 29.6059 16.5 29.4253 16.5H14.5756C13.8167 16.5 13.2007 17.116 13.2007 17.875ZM14.5756 24.75C14.211 24.75 13.8612 24.8949 13.6034 25.1527C13.3455 25.4106 13.2007 25.7603 13.2007 26.125C13.2007 26.4897 13.3455 26.8394 13.6034 27.0973C13.8612 27.3551 14.211 27.5 14.5756 27.5H25.0254C25.3901 27.5 25.7398 27.3551 25.9977 27.0973C26.2555 26.8394 26.4004 26.4897 26.4004 26.125C26.4004 25.7603 26.2555 25.4106 25.9977 25.1527C25.7398 24.8949 25.3901 24.75 25.0254 24.75H14.5756Z" fill="black"/>
</svg>
