<svg width="10" height="30" viewBox="0 0 10 30" fill="none" xmlns="http://www.w3.org/2000/svg">
<path d="M9 26.25C9 27.2446 8.57857 28.1984 7.82843 28.9016C7.07828 29.6049 6.06087 30 5 30C3.93913 30 2.92172 29.6049 2.17157 28.9016C1.42143 28.1984 1 27.2446 1 26.25C1 25.2554 1.42143 24.3016 2.17157 23.5984C2.92172 22.8951 3.93913 22.5 5 22.5C6.06087 22.5 7.07828 22.8951 7.82843 23.5984C8.57857 24.3016 9 25.2554 9 26.25ZM9 15C9 15.9946 8.57857 16.9484 7.82843 17.6516C7.07828 18.3549 6.06087 18.75 5 18.75C3.93913 18.75 2.92172 18.3549 2.17157 17.6516C1.42143 16.9484 1 15.9946 1 15C1 14.0054 1.42143 13.0516 2.17157 12.3484C2.92172 11.6451 3.93913 11.25 5 11.25C6.06087 11.25 7.07828 11.6451 7.82843 12.3484C8.57857 13.0516 9 14.0054 9 15ZM5 7.5C6.06087 7.5 7.07828 7.10491 7.82843 6.40165C8.57857 5.69839 9 4.74456 9 3.75C9 2.75544 8.57857 1.80161 7.82843 1.09835C7.07828 0.395088 6.06087 0 5 0C3.93913 0 2.92172 0.395088 2.17157 1.09835C1.42143 1.80161 1 2.75544 1 3.75C1 4.74456 1.42143 5.69839 2.17157 6.40165C2.92172 7.10491 3.93913 7.5 5 7.5Z" fill="black"/>
</svg>
