<svg width="30" height="10" viewBox="0 0 30 10" fill="none" xmlns="http://www.w3.org/2000/svg">
<path d="M26.25 0.999999C27.2446 0.999999 28.1984 1.42143 28.9016 2.17157C29.6049 2.92172 30 3.93913 30 5C30 6.06086 29.6049 7.07828 28.9016 7.82843C28.1984 8.57857 27.2446 9 26.25 9C25.2554 9 24.3016 8.57857 23.5984 7.82843C22.8951 7.07828 22.5 6.06086 22.5 5C22.5 3.93913 22.8951 2.92172 23.5984 2.17157C24.3016 1.42143 25.2554 0.999999 26.25 0.999999ZM15 0.999999C15.9946 0.999999 16.9484 1.42143 17.6516 2.17157C18.3549 2.92172 18.75 3.93913 18.75 5C18.75 6.06087 18.3549 7.07828 17.6516 7.82843C16.9484 8.57857 15.9946 9 15 9C14.0054 9 13.0516 8.57857 12.3484 7.82843C11.6451 7.07828 11.25 6.06087 11.25 5C11.25 3.93913 11.6451 2.92172 12.3484 2.17157C13.0516 1.42143 14.0054 0.999999 15 0.999999ZM7.5 5C7.5 3.93913 7.10491 2.92172 6.40165 2.17157C5.69839 1.42143 4.74456 1 3.75 1C2.75544 1 1.80161 1.42143 1.09835 2.17157C0.395088 2.92172 -2.21217e-07 3.93913 -1.74846e-07 5C-1.28474e-07 6.06087 0.395088 7.07828 1.09835 7.82843C1.80161 8.57857 2.75544 9 3.75 9C4.74456 9 5.69839 8.57857 6.40165 7.82843C7.10491 7.07828 7.5 6.06087 7.5 5Z" fill="#D50032"/>
</svg>
