<svg width="8" height="30" viewBox="0 0 8 30" fill="none" xmlns="http://www.w3.org/2000/svg">
<path d="M8 26.25C8 27.2446 7.57857 28.1984 6.82843 28.9016C6.07828 29.6049 5.06087 30 4 30C2.93913 30 1.92172 29.6049 1.17157 28.9016C0.421428 28.1984 0 27.2446 0 26.25C0 25.2554 0.421428 24.3016 1.17157 23.5984C1.92172 22.8951 2.93913 22.5 4 22.5C5.06087 22.5 6.07828 22.8951 6.82843 23.5984C7.57857 24.3016 8 25.2554 8 26.25ZM8 15C8 15.9946 7.57857 16.9484 6.82843 17.6516C6.07828 18.3549 5.06087 18.75 4 18.75C2.93913 18.75 1.92172 18.3549 1.17157 17.6516C0.421428 16.9484 0 15.9946 0 15C0 14.0054 0.421428 13.0516 1.17157 12.3484C1.92172 11.6451 2.93913 11.25 4 11.25C5.06087 11.25 6.07828 11.6451 6.82843 12.3484C7.57857 13.0516 8 14.0054 8 15ZM4 7.5C5.06087 7.5 6.07828 7.10491 6.82843 6.40165C7.57857 5.69839 8 4.74456 8 3.75C8 2.75544 7.57857 1.80161 6.82843 1.09835C6.07828 0.395088 5.06087 0 4 0C2.93913 0 1.92172 0.395088 1.17157 1.09835C0.421428 1.80161 0 2.75544 0 3.75C0 4.74456 0.421428 5.69839 1.17157 6.40165C1.92172 7.10491 2.93913 7.5 4 7.5Z" fill="white"/>
</svg>
