<svg width="35" height="35" viewBox="0 0 35 35" fill="none" xmlns="http://www.w3.org/2000/svg">
<path d="M28.823 12.3529C32.2341 12.3529 34.9994 9.58764 34.9994 6.17647C34.9994 2.7653 32.2341 0 28.823 0C25.4118 0 22.6465 2.7653 22.6465 6.17647C22.6465 9.58764 25.4118 12.3529 28.823 12.3529Z" fill="white"/>
<path d="M18.5294 6.17673C18.5294 4.71085 18.8444 3.32114 19.3982 2.05908H4.11765C1.84676 2.05908 0 3.90585 0 6.17673V30.8826C0 33.1535 1.84676 35.0003 4.11765 35.0003H28.8235C31.0944 35.0003 32.9412 33.1535 32.9412 30.8826V15.602C31.6431 16.1721 30.2413 16.4679 28.8235 16.4708C26.0934 16.4708 23.475 15.3863 21.5445 13.4558C19.614 11.5252 18.5294 8.9069 18.5294 6.17673Z" fill="white"/>
</svg>
