<svg width="45" height="44" viewBox="0 0 45 44" fill="none" xmlns="http://www.w3.org/2000/svg">
<path d="M41.7857 25.1429H25.7143V40.8571C25.7143 41.6907 25.3756 42.4901 24.7728 43.0795C24.17 43.6689 23.3525 44 22.5 44C21.6475 44 20.83 43.6689 20.2272 43.0795C19.6244 42.4901 19.2857 41.6907 19.2857 40.8571V25.1429H3.21429C2.3618 25.1429 1.54424 24.8117 0.941443 24.2223C0.338648 23.6329 0 22.8335 0 22C0 21.1665 0.338648 20.3671 0.941443 19.7777C1.54424 19.1883 2.3618 18.8571 3.21429 18.8571H19.2857V3.14286C19.2857 2.30932 19.6244 1.50992 20.2272 0.920521C20.83 0.331121 21.6475 0 22.5 0C23.3525 0 24.17 0.331121 24.7728 0.920521C25.3756 1.50992 25.7143 2.30932 25.7143 3.14286V18.8571H41.7857C42.6382 18.8571 43.4558 19.1883 44.0586 19.7777C44.6614 20.3671 45 21.1665 45 22C45 22.8335 44.6614 23.6329 44.0586 24.2223C43.4558 24.8117 42.6382 25.1429 41.7857 25.1429Z" fill="white"/>
</svg>
