<svg width="86" height="86" viewBox="0 0 86 86" fill="none" xmlns="http://www.w3.org/2000/svg">
<rect width="86" height="86" rx="15" fill="white"/>
<path d="M62.7857 46.1429H46.7143V61.8571C46.7143 62.6907 46.3756 63.4901 45.7728 64.0795C45.17 64.6689 44.3525 65 43.5 65C42.6475 65 41.83 64.6689 41.2272 64.0795C40.6244 63.4901 40.2857 62.6907 40.2857 61.8571V46.1429H24.2143C23.3618 46.1429 22.5442 45.8117 21.9414 45.2223C21.3386 44.6329 21 43.8335 21 43C21 42.1665 21.3386 41.3671 21.9414 40.7777C22.5442 40.1883 23.3618 39.8571 24.2143 39.8571H40.2857V24.1429C40.2857 23.3093 40.6244 22.5099 41.2272 21.9205C41.83 21.3311 42.6475 21 43.5 21C44.3525 21 45.17 21.3311 45.7728 21.9205C46.3756 22.5099 46.7143 23.3093 46.7143 24.1429V39.8571H62.7857C63.6382 39.8571 64.4558 40.1883 65.0586 40.7777C65.6614 41.3671 66 42.1665 66 43C66 43.8335 65.6614 44.6329 65.0586 45.2223C64.4558 45.8117 63.6382 46.1429 62.7857 46.1429Z" fill="black"/>
</svg>
