<svg width="86" height="86" viewBox="0 0 86 86" fill="none" xmlns="http://www.w3.org/2000/svg">
<rect width="86" height="86" rx="15" fill="white"/>
<path d="M40.2847 65C39.2447 65 38.3496 64.67 37.5994 64.01C36.8491 63.35 36.3961 62.5433 36.2405 61.59L35.7206 57.96C35.2199 57.7767 34.7485 57.5567 34.3063 57.3C33.8641 57.0433 33.4305 56.7683 33.0053 56.475L29.4233 57.905C28.4604 58.3083 27.4975 58.345 26.5347 58.015C25.5718 57.685 24.8207 57.0983 24.2815 56.255L21.5662 51.745C21.027 50.9017 20.8729 50.0033 21.104 49.05C21.3351 48.0967 21.855 47.3083 22.6639 46.685L25.7258 44.485C25.6873 44.2283 25.6681 43.9805 25.6681 43.7414V42.2564C25.6681 42.0188 25.6873 41.7717 25.7258 41.515L22.6639 39.315C21.855 38.6917 21.3351 37.9033 21.104 36.95C20.8729 35.9967 21.027 35.0983 21.5662 34.255L24.2815 29.745C24.8207 28.9017 25.5718 28.315 26.5347 27.985C27.4975 27.655 28.4604 27.6917 29.4233 28.095L33.0053 29.525C33.4289 29.2317 33.8718 28.9567 34.334 28.7C34.7962 28.4433 35.2584 28.2233 35.7206 28.04L36.2405 24.41C36.3946 23.4567 36.8475 22.65 37.5994 21.99C38.3512 21.33 39.2463 21 40.2847 21H45.7153C46.7553 21 47.6511 21.33 48.4029 21.99C49.1548 22.65 49.6069 23.4567 49.7595 24.41L50.2794 28.04C50.7801 28.2233 51.2523 28.4433 51.696 28.7C52.1397 28.9567 52.5726 29.2317 52.9947 29.525L56.5767 28.095C57.5396 27.6917 58.5024 27.655 59.4653 27.985C60.4282 28.315 61.1793 28.9017 61.7185 29.745L64.4338 34.255C64.973 35.0983 65.1271 35.9967 64.896 36.95C64.6649 37.9033 64.145 38.6917 63.3361 39.315L60.2742 41.515C60.3127 41.7717 60.3319 42.0195 60.3319 42.2586V43.7414C60.3319 43.9805 60.2934 44.2283 60.2164 44.485L63.2784 46.685C64.0872 47.3083 64.6071 48.0967 64.8382 49.05C65.0693 50.0033 64.9153 50.9017 64.376 51.745L61.6029 56.255C61.0637 57.0983 60.3127 57.685 59.3498 58.015C58.3869 58.345 57.424 58.3083 56.4611 57.905L52.9947 56.475C52.5711 56.7683 52.1281 57.0433 51.666 57.3C51.2038 57.5567 50.7416 57.7767 50.2794 57.96L49.7595 61.59C49.6054 62.5433 49.1532 63.35 48.4029 64.01C47.6527 64.67 46.7568 65 45.7153 65H40.2847ZM43.1155 50.7C45.3494 50.7 47.2559 49.9483 48.8351 48.445C50.4142 46.9417 51.2038 45.1267 51.2038 43C51.2038 40.8733 50.4142 39.0583 48.8351 37.555C47.2559 36.0517 45.3494 35.3 43.1155 35.3C40.8431 35.3 38.9266 36.0517 37.366 37.555C35.8053 39.0583 35.0258 40.8733 35.0273 43C35.0289 45.1267 35.8092 46.9417 37.3683 48.445C38.9274 49.9483 40.8431 50.7 43.1155 50.7Z" fill="#0D0D0D"/>
</svg>
