<svg width="44" height="44" viewBox="0 0 44 44" fill="none" xmlns="http://www.w3.org/2000/svg">
<path d="M19.2847 44C18.2447 44 17.3496 43.67 16.5994 43.01C15.8491 42.35 15.3961 41.5433 15.2405 40.59L14.7206 36.96C14.2199 36.7767 13.7485 36.5567 13.3063 36.3C12.8641 36.0433 12.4305 35.7683 12.0053 35.475L8.42332 36.905C7.46043 37.3083 6.49755 37.345 5.53466 37.015C4.57178 36.685 3.82073 36.0983 3.28151 35.255L0.566176 30.745C0.0269604 29.9017 -0.127101 29.0033 0.103992 28.05C0.335084 27.0967 0.855042 26.3083 1.66387 25.685L4.72584 23.485C4.68733 23.2283 4.66807 22.9805 4.66807 22.7414V21.2564C4.66807 21.0188 4.68733 20.7717 4.72584 20.515L1.66387 18.315C0.855042 17.6917 0.335084 16.9033 0.103992 15.95C-0.127101 14.9967 0.0269604 14.0983 0.566176 13.255L3.28151 8.745C3.82073 7.90167 4.57178 7.315 5.53466 6.985C6.49755 6.655 7.46043 6.69167 8.42332 7.095L12.0053 8.525C12.4289 8.23167 12.8718 7.95667 13.334 7.7C13.7962 7.44333 14.2584 7.22333 14.7206 7.04L15.2405 3.41C15.3946 2.45667 15.8475 1.65 16.5994 0.99C17.3512 0.33 18.2463 0 19.2847 0H24.7153C25.7553 0 26.6511 0.33 27.4029 0.99C28.1548 1.65 28.6069 2.45667 28.7595 3.41L29.2794 7.04C29.7801 7.22333 30.2523 7.44333 30.696 7.7C31.1397 7.95667 31.5726 8.23167 31.9947 8.525L35.5767 7.095C36.5396 6.69167 37.5024 6.655 38.4653 6.985C39.4282 7.315 40.1793 7.90167 40.7185 8.745L43.4338 13.255C43.973 14.0983 44.1271 14.9967 43.896 15.95C43.6649 16.9033 43.145 17.6917 42.3361 18.315L39.2742 20.515C39.3127 20.7717 39.3319 21.0195 39.3319 21.2586V22.7414C39.3319 22.9805 39.2934 23.2283 39.2164 23.485L42.2784 25.685C43.0872 26.3083 43.6071 27.0967 43.8382 28.05C44.0693 29.0033 43.9153 29.9017 43.376 30.745L40.6029 35.255C40.0637 36.0983 39.3127 36.685 38.3498 37.015C37.3869 37.345 36.424 37.3083 35.4611 36.905L31.9947 35.475C31.5711 35.7683 31.1281 36.0433 30.666 36.3C30.2038 36.5567 29.7416 36.7767 29.2794 36.96L28.7595 40.59C28.6054 41.5433 28.1532 42.35 27.4029 43.01C26.6527 43.67 25.7568 44 24.7153 44H19.2847ZM22.1155 29.7C24.3494 29.7 26.2559 28.9483 27.8351 27.445C29.4142 25.9417 30.2038 24.1267 30.2038 22C30.2038 19.8733 29.4142 18.0583 27.8351 16.555C26.2559 15.0517 24.3494 14.3 22.1155 14.3C19.8431 14.3 17.9266 15.0517 16.366 16.555C14.8053 18.0583 14.0258 19.8733 14.0273 22C14.0289 24.1267 14.8092 25.9417 16.3683 27.445C17.9274 28.9483 19.8431 29.7 22.1155 29.7Z" fill="white"/>
</svg>
